<?xml version="1.0" encoding="UTF-8"?>
<!DOCTYPE svg PUBLIC "-//W3C//DTD SVG 1.1//EN" "http://www.w3.org/Graphics/SVG/1.1/DTD/svg11.dtd">
<svg xmlns="http://www.w3.org/2000/svg" version="1.1" width="569px" height="570px" style="shape-rendering:geometricPrecision; text-rendering:geometricPrecision; image-rendering:optimizeQuality; fill-rule:evenodd; clip-rule:evenodd" xmlns:xlink="http://www.w3.org/1999/xlink">
<g><path style="opacity:1" fill="#19a9d8" d="M 139.5,-0.5 C 237.167,-0.5 334.833,-0.5 432.5,-0.5C 508.756,12.0884 554.089,56.4217 568.5,132.5C 568.5,231.833 568.5,331.167 568.5,430.5C 566.415,450.254 561.415,469.254 553.5,487.5C 552.315,486.143 551.315,484.643 550.5,483C 554.002,479.4 556.669,475.234 558.5,470.5C 558.333,469.833 558.167,469.167 558,468.5C 557.667,469.5 557.333,470.5 557,471.5C 555.055,469.074 552.555,468.241 549.5,469C 555.938,471.376 555.938,473.376 549.5,475C 549.833,475.333 550.167,475.667 550.5,476C 549.123,477.241 547.79,477.408 546.5,476.5C 546.441,468.996 547.441,461.496 549.5,454C 548.262,451.285 548.262,448.618 549.5,446C 547.395,443.115 547.395,440.115 549.5,437C 548.152,435.426 547.486,433.593 547.5,431.5C 547.674,421.017 548.007,410.517 548.5,400C 548.006,395.187 547.006,390.52 545.5,386C 546.167,385 546.833,384 547.5,383C 544.818,380.175 544.151,377.008 545.5,373.5C 544.499,368.821 543.499,364.155 542.5,359.5C 542.709,358.914 543.043,358.414 543.5,358C 541.266,355.589 540.6,352.922 541.5,350C 540.496,347.65 539.496,345.316 538.5,343C 539.167,342 539.833,341 540.5,340C 536.941,336.577 536.607,332.91 539.5,329C 537.314,325.875 536.981,322.542 538.5,319C 538.37,317.941 537.87,317.108 537,316.5C 533.774,317.854 530.274,319.521 526.5,321.5C 514.904,322.564 507.237,317.897 503.5,307.5C 504.833,304.5 504.833,301.5 503.5,298.5C 505.302,295.2 507.302,292.033 509.5,289C 509.167,288.667 508.833,288.333 508.5,288C 513.494,283.318 518.494,277.985 523.5,272C 523.167,271.667 522.833,271.333 522.5,271C 524.208,268.957 526.208,267.29 528.5,266C 528.5,264.667 528.5,263.333 528.5,262C 529.833,259.667 531.167,257.333 532.5,255C 531.806,251.344 532.472,247.844 534.5,244.5C 535.249,240.963 535.249,237.296 534.5,233.5C 536.538,230.656 536.871,227.656 535.5,224.5C 536.373,222.587 537.373,220.753 538.5,219C 537.833,218 537.167,217 536.5,216C 537.665,212.665 539.332,209.665 541.5,207C 541.167,206.667 540.833,206.333 540.5,206C 542.292,201.079 543.958,196.079 545.5,191C 545.5,187.667 545.5,184.333 545.5,181C 543.039,174.745 540.706,168.912 538.5,163.5C 539.833,160.5 539.833,157.5 538.5,154.5C 538.833,154.167 539.167,153.833 539.5,153.5C 540.886,155.17 542.719,156.504 545,157.5C 545.311,156.258 544.811,155.258 543.5,154.5C 544.025,153.808 544.692,153.308 545.5,153C 544.396,151.869 544.729,151.035 546.5,150.5C 547.696,150.846 547.696,151.346 546.5,152C 548.607,152.854 549.941,152.188 550.5,150C 550.108,148.989 549.441,148.489 548.5,148.5C 549.035,146.729 549.869,146.396 551,147.5C 552.249,145.008 553.416,145.175 554.5,148C 559.315,149.139 561.815,147.305 562,142.5C 561.683,144.301 561.016,144.634 560,143.5C 559.517,144.448 559.351,145.448 559.5,146.5C 557.833,146.5 556.167,146.5 554.5,146.5C 554.649,145.448 554.483,144.448 554,143.5C 553.667,143.833 553.333,144.167 553,144.5C 552.5,143.5 552,142.5 551.5,141.5C 555.13,141.951 558.796,141.451 562.5,140C 561.833,138.667 561.167,137.333 560.5,136C 561.517,134.951 561.684,133.784 561,132.5C 559.05,128.268 557.383,123.934 556,119.5C 555.075,118.953 554.242,118.287 553.5,117.5C 549.518,109.898 545.685,102.231 542,94.5C 540.5,93 539,91.5 537.5,90C 537.833,89.6667 538.167,89.3333 538.5,89C 535.872,84.242 532.872,79.742 529.5,75.5C 523.167,69.5 516.833,63.5 510.5,57.5C 506.866,56.7529 504.033,54.4196 502,50.5C 498.881,51.7667 496.381,50.4334 494.5,46.5C 490.593,44.757 487.093,42.4237 484,39.5C 483,39.8333 482,40.1667 481,40.5C 475.805,37.1144 470.805,33.4477 466,29.5C 465,29.8333 464,30.1667 463,30.5C 459.859,27.7048 456.359,27.0381 452.5,28.5C 451.252,27.9598 450.085,27.2931 449,26.5C 432.86,26.8981 416.693,27.2314 400.5,27.5C 398.407,27.5142 396.574,26.8476 395,25.5C 393.215,26.2401 391.382,26.9067 389.5,27.5C 387.817,26.4079 385.984,25.7413 384,25.5C 379.907,25.0732 375.74,25.0732 371.5,25.5C 370.252,24.9598 369.085,24.2931 368,23.5C 364.565,24.8203 361.232,24.487 358,22.5C 356.527,22.9031 355.194,23.5697 354,24.5C 349.78,22.0878 345.447,20.7545 341,20.5C 329.667,20.5 318.333,20.5 307,20.5C 304.115,22.6046 301.115,22.6046 298,20.5C 296.426,21.8476 294.593,22.5142 292.5,22.5C 285.261,22.4253 278.095,22.092 271,21.5C 268.916,23.7139 266.582,24.0473 264,22.5C 262.016,22.7413 260.183,23.4079 258.5,24.5C 256.618,23.9067 254.785,23.2401 253,22.5C 251.426,23.8476 249.593,24.5142 247.5,24.5C 208.5,23.1667 169.5,23.1667 130.5,24.5C 128.202,24.268 126.035,23.6014 124,22.5C 120.688,23.5211 118.022,22.5211 116,19.5C 115.25,20.1258 114.416,20.6258 113.5,21C 114.258,22.3639 113.758,23.5305 112,24.5C 111.667,24.1667 111.333,23.8333 111,23.5C 108.037,25.4606 105.371,27.794 103,30.5C 102.667,30.1667 102.333,29.8333 102,29.5C 99.3434,30.5729 97.1768,32.2395 95.5,34.5C 91.0982,35.3887 87.5982,37.722 85,41.5C 83.927,40.7203 82.7604,40.887 81.5,42C 79.4279,46.1348 76.4279,48.4682 72.5,49C 69.1453,53.3518 65.4786,57.3518 61.5,61C 61.8333,61.3333 62.1667,61.6667 62.5,62C 60.6266,64.2089 58.46,66.0422 56,67.5C 52.5257,76.0073 48.5257,84.3407 44,92.5C 41.475,100.417 37.975,107.917 33.5,115C 33.8333,115.333 34.1667,115.667 34.5,116C 33.3333,117.167 32.1667,118.333 31,119.5C 28.6912,127.74 25.8579,135.74 22.5,143.5C 22.7093,144.086 23.0426,144.586 23.5,145C 21.4016,147.826 21.2349,150.659 23,153.5C 23.6667,152.833 24.3333,152.167 25,151.5C 26,152.833 27,154.167 28,155.5C 29.5185,155.943 30.6852,155.276 31.5,153.5C 34.5,156.167 37.5,156.167 40.5,153.5C 41.3148,155.276 42.4815,155.943 44,155.5C 44.6172,156.449 44.4506,157.282 43.5,158C 44.4491,158.617 45.2825,158.451 46,157.5C 47.2289,159.947 48.7289,160.113 50.5,158C 47.3333,157.5 45.5,155.667 45,152.5C 43.1598,153.833 42.6598,153.666 43.5,152C 41.0712,151.549 40.9045,150.715 43,149.5C 46.2032,150.77 48.8699,152.77 51,155.5C 53.3646,160.267 55.5313,165.1 57.5,170C 56.5697,171.194 55.9031,172.527 55.5,174C 57.487,177.232 57.8203,180.565 56.5,184C 58.3312,188.432 59.9979,193.265 61.5,198.5C 60.3915,200.214 61.0582,200.881 63.5,200.5C 65.2204,208.514 67.8871,216.348 71.5,224C 69.3374,227.31 69.0041,230.81 70.5,234.5C 69.7868,236.776 69.2868,239.109 69,241.5C 65.4924,246.988 62.9924,252.154 61.5,257C 64.7513,259.929 68.0846,260.096 71.5,257.5C 75.0883,259.29 78.7549,259.623 82.5,258.5C 92.8975,262.237 97.5641,269.904 96.5,281.5C 94.4901,285.52 92.6567,289.187 91,292.5C 90.6667,292.167 90.3333,291.833 90,291.5C 87.3434,292.573 85.1768,294.24 83.5,296.5C 78.4438,297.862 73.7771,300.029 69.5,303C 69.7157,307.298 68.3824,311.298 65.5,315C 66.2583,316.364 65.7583,317.531 64,318.5C 63.6667,318.167 63.3333,317.833 63,317.5C 60.5794,318.961 58.0794,320.294 55.5,321.5C 52.5,320.167 49.5,320.167 46.5,321.5C 41.6814,319.423 36.8481,317.423 32,315.5C 30.2151,316.24 28.3817,316.907 26.5,317.5C 23.6565,315.462 20.6565,315.129 17.5,316.5C 15.5866,315.627 13.7533,314.627 12,313.5C 11,314.167 10,314.833 9,315.5C 5.88466,314.025 2.71799,312.692 -0.5,311.5C -0.5,251.833 -0.5,192.167 -0.5,132.5C 11.4214,67.4001 49.0881,24.9001 112.5,5C 121.549,2.69067 130.549,0.857338 139.5,-0.5 Z"/></g>
<g><path style="opacity:1" fill="#18a8d7" d="M 553.5,487.5 C 533.683,531.317 500.35,558.65 453.5,569.5C 343.5,569.5 233.5,569.5 123.5,569.5C 58.6183,556.12 18.4516,517.12 3,452.5C 1.91694,445.008 0.750277,437.675 -0.5,430.5C -0.5,390.833 -0.5,351.167 -0.5,311.5C 2.71799,312.692 5.88466,314.025 9,315.5C 10,314.833 11,314.167 12,313.5C 13.7533,314.627 15.5866,315.627 17.5,316.5C 20.6565,315.129 23.6565,315.462 26.5,317.5C 28.3817,316.907 30.2151,316.24 32,315.5C 36.8481,317.423 41.6814,319.423 46.5,321.5C 49.5,320.167 52.5,320.167 55.5,321.5C 58.0794,320.294 60.5794,318.961 63,317.5C 63.3333,317.833 63.6667,318.167 64,318.5C 65.7583,317.531 66.2583,316.364 65.5,315C 68.3824,311.298 69.7157,307.298 69.5,303C 73.7771,300.029 78.4438,297.862 83.5,296.5C 85.1768,294.24 87.3434,292.573 90,291.5C 90.3333,291.833 90.6667,292.167 91,292.5C 92.6567,289.187 94.4901,285.52 96.5,281.5C 97.5641,269.904 92.8975,262.237 82.5,258.5C 78.7549,259.623 75.0883,259.29 71.5,257.5C 68.0846,260.096 64.7513,259.929 61.5,257C 62.9924,252.154 65.4924,246.988 69,241.5C 69.2868,239.109 69.7868,236.776 70.5,234.5C 69.0041,230.81 69.3374,227.31 71.5,224C 67.8871,216.348 65.2204,208.514 63.5,200.5C 61.0582,200.881 60.3915,200.214 61.5,198.5C 59.9979,193.265 58.3312,188.432 56.5,184C 57.8203,180.565 57.487,177.232 55.5,174C 55.9031,172.527 56.5697,171.194 57.5,170C 55.5313,165.1 53.3646,160.267 51,155.5C 48.8699,152.77 46.2032,150.77 43,149.5C 40.9045,150.715 41.0712,151.549 43.5,152C 42.6598,153.666 43.1598,153.833 45,152.5C 45.5,155.667 47.3333,157.5 50.5,158C 48.7289,160.113 47.2289,159.947 46,157.5C 45.2825,158.451 44.4491,158.617 43.5,158C 44.4506,157.282 44.6172,156.449 44,155.5C 42.4815,155.943 41.3148,155.276 40.5,153.5C 37.5,156.167 34.5,156.167 31.5,153.5C 30.6852,155.276 29.5185,155.943 28,155.5C 27,154.167 26,152.833 25,151.5C 24.3333,152.167 23.6667,152.833 23,153.5C 21.2349,150.659 21.4016,147.826 23.5,145C 23.0426,144.586 22.7093,144.086 22.5,143.5C 25.8579,135.74 28.6912,127.74 31,119.5C 32.1667,118.333 33.3333,117.167 34.5,116C 34.1667,115.667 33.8333,115.333 33.5,115C 37.975,107.917 41.475,100.417 44,92.5C 48.5257,84.3407 52.5257,76.0073 56,67.5C 58.46,66.0422 60.6266,64.2089 62.5,62C 62.1667,61.6667 61.8333,61.3333 61.5,61C 65.4786,57.3518 69.1453,53.3518 72.5,49C 76.4279,48.4682 79.4279,46.1348 81.5,42C 82.7604,40.887 83.927,40.7203 85,41.5C 87.5982,37.722 91.0982,35.3887 95.5,34.5C 97.1768,32.2395 99.3434,30.5729 102,29.5C 102.333,29.8333 102.667,30.1667 103,30.5C 105.371,27.794 108.037,25.4606 111,23.5C 111.333,23.8333 111.667,24.1667 112,24.5C 113.758,23.5305 114.258,22.3639 113.5,21C 114.416,20.6258 115.25,20.1258 116,19.5C 118.022,22.5211 120.688,23.5211 124,22.5C 126.035,23.6014 128.202,24.268 130.5,24.5C 169.5,23.1667 208.5,23.1667 247.5,24.5C 249.593,24.5142 251.426,23.8476 253,22.5C 254.785,23.2401 256.618,23.9067 258.5,24.5C 260.183,23.4079 262.016,22.7413 264,22.5C 266.582,24.0473 268.916,23.7139 271,21.5C 278.095,22.092 285.261,22.4253 292.5,22.5C 294.593,22.5142 296.426,21.8476 298,20.5C 301.115,22.6046 304.115,22.6046 307,20.5C 318.333,20.5 329.667,20.5 341,20.5C 345.447,20.7545 349.78,22.0878 354,24.5C 355.194,23.5697 356.527,22.9031 358,22.5C 361.232,24.487 364.565,24.8203 368,23.5C 369.085,24.2931 370.252,24.9598 371.5,25.5C 375.74,25.0732 379.907,25.0732 384,25.5C 385.984,25.7413 387.817,26.4079 389.5,27.5C 391.382,26.9067 393.215,26.2401 395,25.5C 396.574,26.8476 398.407,27.5142 400.5,27.5C 416.693,27.2314 432.86,26.8981 449,26.5C 450.085,27.2931 451.252,27.9598 452.5,28.5C 456.359,27.0381 459.859,27.7048 463,30.5C 464,30.1667 465,29.8333 466,29.5C 470.805,33.4477 475.805,37.1144 481,40.5C 482,40.1667 483,39.8333 484,39.5C 487.093,42.4237 490.593,44.757 494.5,46.5C 496.381,50.4334 498.881,51.7667 502,50.5C 504.033,54.4196 506.866,56.7529 510.5,57.5C 516.833,63.5 523.167,69.5 529.5,75.5C 532.872,79.742 535.872,84.242 538.5,89C 538.167,89.3333 537.833,89.6667 537.5,90C 539,91.5 540.5,93 542,94.5C 545.685,102.231 549.518,109.898 553.5,117.5C 554.242,118.287 555.075,118.953 556,119.5C 557.383,123.934 559.05,128.268 561,132.5C 561.684,133.784 561.517,134.951 560.5,136C 561.167,137.333 561.833,138.667 562.5,140C 558.796,141.451 555.13,141.951 551.5,141.5C 552,142.5 552.5,143.5 553,144.5C 553.333,144.167 553.667,143.833 554,143.5C 554.483,144.448 554.649,145.448 554.5,146.5C 556.167,146.5 557.833,146.5 559.5,146.5C 559.351,145.448 559.517,144.448 560,143.5C 561.016,144.634 561.683,144.301 562,142.5C 561.815,147.305 559.315,149.139 554.5,148C 553.416,145.175 552.249,145.008 551,147.5C 549.869,146.396 549.035,146.729 548.5,148.5C 549.441,148.489 550.108,148.989 550.5,150C 549.941,152.188 548.607,152.854 546.5,152C 547.696,151.346 547.696,150.846 546.5,150.5C 544.729,151.035 544.396,151.869 545.5,153C 544.692,153.308 544.025,153.808 543.5,154.5C 544.811,155.258 545.311,156.258 545,157.5C 542.719,156.504 540.886,155.17 539.5,153.5C 539.167,153.833 538.833,154.167 538.5,154.5C 539.833,157.5 539.833,160.5 538.5,163.5C 540.706,168.912 543.039,174.745 545.5,181C 545.5,184.333 545.5,187.667 545.5,191C 543.958,196.079 542.292,201.079 540.5,206C 540.833,206.333 541.167,206.667 541.5,207C 539.332,209.665 537.665,212.665 536.5,216C 537.167,217 537.833,218 538.5,219C 537.373,220.753 536.373,222.587 535.5,224.5C 536.871,227.656 536.538,230.656 534.5,233.5C 535.249,237.296 535.249,240.963 534.5,244.5C 532.472,247.844 531.806,251.344 532.5,255C 531.167,257.333 529.833,259.667 528.5,262C 528.5,263.333 528.5,264.667 528.5,266C 526.208,267.29 524.208,268.957 522.5,271C 522.833,271.333 523.167,271.667 523.5,272C 518.494,277.985 513.494,283.318 508.5,288C 508.833,288.333 509.167,288.667 509.5,289C 507.302,292.033 505.302,295.2 503.5,298.5C 504.833,301.5 504.833,304.5 503.5,307.5C 507.237,317.897 514.904,322.564 526.5,321.5C 530.274,319.521 533.774,317.854 537,316.5C 537.87,317.108 538.37,317.941 538.5,319C 536.981,322.542 537.314,325.875 539.5,329C 536.607,332.91 536.941,336.577 540.5,340C 539.833,341 539.167,342 538.5,343C 539.496,345.316 540.496,347.65 541.5,350C 540.6,352.922 541.266,355.589 543.5,358C 543.043,358.414 542.709,358.914 542.5,359.5C 543.499,364.155 544.499,368.821 545.5,373.5C 544.151,377.008 544.818,380.175 547.5,383C 546.833,384 546.167,385 545.5,386C 547.006,390.52 548.006,395.187 548.5,400C 548.007,410.517 547.674,421.017 547.5,431.5C 547.486,433.593 548.152,435.426 549.5,437C 547.395,440.115 547.395,443.115 549.5,446C 548.262,448.618 548.262,451.285 549.5,454C 547.441,461.496 546.441,468.996 546.5,476.5C 547.79,477.408 549.123,477.241 550.5,476C 550.167,475.667 549.833,475.333 549.5,475C 555.938,473.376 555.938,471.376 549.5,469C 552.555,468.241 555.055,469.074 557,471.5C 557.333,470.5 557.667,469.5 558,468.5C 558.167,469.167 558.333,469.833 558.5,470.5C 556.669,475.234 554.002,479.4 550.5,483C 551.315,484.643 552.315,486.143 553.5,487.5 Z"/></g>
<g><path style="opacity:1" fill="#9af7e7" d="M 314.5,63.5 C 305.815,63.464 297.149,63.7974 288.5,64.5C 297.081,61.1427 305.747,60.8093 314.5,63.5 Z"/></g>
<g><path style="opacity:1" fill="#fdfefe" d="M 314.5,63.5 C 319.462,67.479 325.129,70.1457 331.5,71.5C 331.973,72.9063 332.973,73.573 334.5,73.5C 336.737,77.4096 339.737,80.7429 343.5,83.5C 344.061,89.1447 346.394,93.8114 350.5,97.5C 351.323,105.471 351.656,113.471 351.5,121.5C 349.13,127.861 346.297,134.194 343,140.5C 342.667,140.167 342.333,139.833 342,139.5C 340.325,141.75 338.825,144.75 337.5,148.5C 336.109,150.89 334.109,152.557 331.5,153.5C 329.801,153.34 328.134,153.506 326.5,154C 326.833,154.333 327.167,154.667 327.5,155C 316.281,161.105 304.281,163.105 291.5,161C 288.629,158.543 285.295,157.376 281.5,157.5C 273.377,154.384 267.044,149.051 262.5,141.5C 260.865,135.574 258.698,129.907 256,124.5C 255.032,114.058 255.532,103.725 257.5,93.5C 258.931,92.2196 259.598,90.5529 259.5,88.5C 261.194,87.4726 262.527,86.1392 263.5,84.5C 271.233,77.1271 279.566,70.4605 288.5,64.5C 297.149,63.7974 305.815,63.464 314.5,63.5 Z"/></g>
<g><path style="opacity:1" fill="#befcf3" d="M 314.5,63.5 C 317.792,63.6469 320.792,64.6469 323.5,66.5C 324.287,68.1042 325.62,68.7709 327.5,68.5C 329.23,69.0256 330.564,70.0256 331.5,71.5C 325.129,70.1457 319.462,67.479 314.5,63.5 Z"/></g>
<g><path style="opacity:1" fill="#65f2d6" d="M 323.5,66.5 C 325.153,66.6596 326.486,67.3263 327.5,68.5C 325.62,68.7709 324.287,68.1042 323.5,66.5 Z"/></g>
<g><path style="opacity:1" fill="#60f0d3" d="M 331.5,71.5 C 333.027,71.427 334.027,72.0937 334.5,73.5C 332.973,73.573 331.973,72.9063 331.5,71.5 Z"/></g>
<g><path style="opacity:1" fill="#e3fefc" d="M 288.5,64.5 C 279.566,70.4605 271.233,77.1271 263.5,84.5C 267.839,78.1606 273.173,72.8272 279.5,68.5C 282.057,66.3926 285.057,65.0592 288.5,64.5 Z"/></g>
<g><path style="opacity:1" fill="#9efbef" d="M 334.5,73.5 C 338.234,76.2311 341.234,79.5644 343.5,83.5C 339.737,80.7429 336.737,77.4096 334.5,73.5 Z"/></g>
<g><path style="opacity:1" fill="#70f4dd" d="M 279.5,68.5 C 273.173,72.8272 267.839,78.1606 263.5,84.5C 262.527,86.1392 261.194,87.4726 259.5,88.5C 263.833,79.5 270.5,72.8333 279.5,68.5 Z"/></g>
<g><path style="opacity:1" fill="#5bedd3" d="M 259.5,88.5 C 259.598,90.5529 258.931,92.2196 257.5,93.5C 257.402,91.4471 258.069,89.7804 259.5,88.5 Z"/></g>
<g><path style="opacity:1" fill="#c4fcf6" d="M 343.5,83.5 C 347.409,87.3172 349.742,91.9838 350.5,97.5C 346.394,93.8114 344.061,89.1447 343.5,83.5 Z"/></g>
<g><path style="opacity:1" fill="#c3faf6" d="M 257.5,93.5 C 255.532,103.725 255.032,114.058 256,124.5C 258.698,129.907 260.865,135.574 262.5,141.5C 258.235,136.297 255.569,130.297 254.5,123.5C 254.5,117.167 254.5,110.833 254.5,104.5C 254.432,100.43 255.432,96.763 257.5,93.5 Z"/></g>
<g><path style="opacity:1" fill="#79f0e9" d="M 254.5,104.5 C 254.5,110.833 254.5,117.167 254.5,123.5C 252.314,117.127 252.314,110.794 254.5,104.5 Z"/></g>
<g><path style="opacity:1" fill="#91f5ee" d="M 350.5,97.5 C 352.813,101.939 353.813,106.773 353.5,112C 353.694,117.526 352.694,122.693 350.5,127.5C 350.517,125.435 350.85,123.435 351.5,121.5C 351.656,113.471 351.323,105.471 350.5,97.5 Z"/></g>
<g><path style="opacity:1" fill="#cdfbfa" d="M 351.5,121.5 C 350.85,123.435 350.517,125.435 350.5,127.5C 348.436,135.973 344.102,142.973 337.5,148.5C 338.825,144.75 340.325,141.75 342,139.5C 342.333,139.833 342.667,140.167 343,140.5C 346.297,134.194 349.13,127.861 351.5,121.5 Z"/></g>
<g><path style="opacity:1" fill="#d0f8f9" d="M 331.5,153.5 C 326.68,157.91 321.013,160.743 314.5,162C 306.5,162.667 298.5,162.667 290.5,162C 286.965,161.337 283.965,159.837 281.5,157.5C 285.295,157.376 288.629,158.543 291.5,161C 304.281,163.105 316.281,161.105 327.5,155C 327.167,154.667 326.833,154.333 326.5,154C 328.134,153.506 329.801,153.34 331.5,153.5 Z"/></g>
<g><path style="opacity:1" fill="#fcfefe" d="M 264.5,183.5 C 269.565,187.283 272.898,192.283 274.5,198.5C 274.693,202.566 274.36,206.566 273.5,210.5C 270.473,215.858 266.14,219.858 260.5,222.5C 259.508,222.328 258.842,222.662 258.5,223.5C 243.181,227.33 227.847,231.163 212.5,235C 202.441,236.127 193.941,240.294 187,247.5C 185.333,250.833 183.667,254.167 182,257.5C 176.87,274.556 171.537,291.556 166,308.5C 159.142,320.007 149.309,323.841 136.5,320C 130.408,317.414 126.741,312.914 125.5,306.5C 125.334,302.154 125.501,297.821 126,293.5C 128.903,288.22 130.403,282.554 130.5,276.5C 130.5,276.167 130.5,275.833 130.5,275.5C 131.458,275.047 132.292,274.381 133,273.5C 133.696,270.522 134.196,267.522 134.5,264.5C 135.928,258.216 137.928,252.216 140.5,246.5C 141.558,245.4 142.392,244.066 143,242.5C 144.74,237.3 145.907,231.966 146.5,226.5C 148.522,222.84 150.688,219.173 153,215.5C 153.505,213.482 154.005,211.482 154.5,209.5C 154.5,209.167 154.5,208.833 154.5,208.5C 160.435,205.864 166.102,202.698 171.5,199C 175.052,198.122 178.386,196.956 181.5,195.5C 193.744,194.24 205.744,192.074 217.5,189C 219.319,188.26 220.652,187.093 221.5,185.5C 225.658,185.88 229.325,184.88 232.5,182.5C 239.36,182.164 246.193,181.497 253,180.5C 256.678,181.878 260.511,182.878 264.5,183.5 Z"/></g>
<g><path style="opacity:1" fill="#2ac8cb" d="M 282.5,180.5 C 277.481,180.752 272.481,181.252 267.5,182C 270.302,186.44 272.969,190.94 275.5,195.5C 275.737,196.791 275.404,197.791 274.5,198.5C 272.898,192.283 269.565,187.283 264.5,183.5C 264.167,182.833 263.833,182.167 263.5,181.5C 263.389,180.883 263.056,180.383 262.5,180C 269.346,179.179 276.013,179.346 282.5,180.5 Z"/></g>
<g><path style="opacity:1" fill="#d0fbf9" d="M 263.5,181.5 C 263.833,182.167 264.167,182.833 264.5,183.5C 260.511,182.878 256.678,181.878 253,180.5C 246.193,181.497 239.36,182.164 232.5,182.5C 242.682,177.717 253.015,177.384 263.5,181.5 Z"/></g>
<g><path style="opacity:1" fill="#02ddc9" d="M 282.5,180.5 C 296.034,181.767 307.701,187.101 317.5,196.5C 321.565,200.559 325.232,204.893 328.5,209.5C 329.455,211.746 330.122,214.079 330.5,216.5C 326.5,216.5 322.5,216.5 318.5,216.5C 318.5,217.833 318.5,219.167 318.5,220.5C 315.5,220.833 314.167,219.5 314.5,216.5C 312.143,216.663 309.81,216.497 307.5,216C 306.663,214.989 306.33,213.822 306.5,212.5C 303.794,212.425 301.127,212.092 298.5,211.5C 298.5,210.5 298.5,209.5 298.5,208.5C 297.167,208.5 295.833,208.5 294.5,208.5C 294.5,209.5 294.5,210.5 294.5,211.5C 288.357,212.406 282.357,212.739 276.5,212.5C 276.495,206.717 276.161,201.05 275.5,195.5C 272.969,190.94 270.302,186.44 267.5,182C 272.481,181.252 277.481,180.752 282.5,180.5 Z"/></g>
<g><path style="opacity:1" fill="#bef8f8" d="M 232.5,182.5 C 229.325,184.88 225.658,185.88 221.5,185.5C 224.907,183.926 228.573,182.926 232.5,182.5 Z"/></g>
<g><path style="opacity:1" fill="#c7f9f9" d="M 221.5,185.5 C 220.652,187.093 219.319,188.26 217.5,189C 205.744,192.074 193.744,194.24 181.5,195.5C 194.653,191.878 207.986,188.545 221.5,185.5 Z"/></g>
<g><path style="opacity:1" fill="#baf8f9" d="M 181.5,195.5 C 178.386,196.956 175.052,198.122 171.5,199C 166.102,202.698 160.435,205.864 154.5,208.5C 161.725,200.722 170.725,196.389 181.5,195.5 Z"/></g>
<g><path style="opacity:1" fill="#11dfd0" d="M 275.5,195.5 C 276.161,201.05 276.495,206.717 276.5,212.5C 282.357,212.739 288.357,212.406 294.5,211.5C 294.5,210.5 294.5,209.5 294.5,208.5C 295.833,208.5 297.167,208.5 298.5,208.5C 298.5,209.5 298.5,210.5 298.5,211.5C 301.127,212.092 303.794,212.425 306.5,212.5C 306.33,213.822 306.663,214.989 307.5,216C 309.81,216.497 312.143,216.663 314.5,216.5C 314.167,219.5 315.5,220.833 318.5,220.5C 318.5,219.167 318.5,217.833 318.5,216.5C 322.5,216.5 326.5,216.5 330.5,216.5C 330.122,214.079 329.455,211.746 328.5,209.5C 332.513,213.515 336.179,217.848 339.5,222.5C 337.512,222.173 335.512,221.84 333.5,221.5C 330.64,221.555 328.307,222.555 326.5,224.5C 323.569,226.091 320.902,228.091 318.5,230.5C 316.692,230.509 315.025,230.009 313.5,229C 314.902,227.658 314.569,226.824 312.5,226.5C 311.353,226.818 310.519,227.484 310,228.5C 308.989,227.663 307.822,227.33 306.5,227.5C 306.5,226.5 306.5,225.5 306.5,224.5C 305.167,224.5 303.833,224.5 302.5,224.5C 302.5,223.167 302.5,221.833 302.5,220.5C 298.5,220.5 294.5,220.5 290.5,220.5C 290.5,219.167 290.5,217.833 290.5,216.5C 285.126,216.477 279.793,215.977 274.5,215C 273.62,213.644 273.286,212.144 273.5,210.5C 274.36,206.566 274.693,202.566 274.5,198.5C 275.404,197.791 275.737,196.791 275.5,195.5 Z"/></g>
<g><path style="opacity:1" fill="#bdf7f9" d="M 154.5,209.5 C 154.005,211.482 153.505,213.482 153,215.5C 150.688,219.173 148.522,222.84 146.5,226.5C 147.31,219.883 149.977,214.216 154.5,209.5 Z"/></g>
<g><path style="opacity:1" fill="#fcfefe" d="M 434.5,215.5 C 444.16,218.692 449.16,225.526 449.5,236C 449.148,240.389 447.982,244.556 446,248.5C 430.221,264.279 414.387,280.113 398.5,296C 388.463,306.742 376.463,309.742 362.5,305C 345.061,290.729 328.728,275.229 313.5,258.5C 314.644,252.626 315.311,246.626 315.5,240.5C 316.552,240.649 317.552,240.483 318.5,240C 317.351,237.541 317.351,235.041 318.5,232.5C 318.5,231.833 318.5,231.167 318.5,230.5C 320.902,228.091 323.569,226.091 326.5,224.5C 332.852,222.712 338.852,223.379 344.5,226.5C 355.174,236.175 365.841,245.841 376.5,255.5C 377.167,255.333 377.833,255.167 378.5,255C 388.368,244.964 398.368,235.131 408.5,225.5C 413.845,223.01 418.845,219.843 423.5,216C 427.152,215.501 430.818,215.335 434.5,215.5 Z"/></g>
<g><path style="opacity:1" fill="#ccf3fa" d="M 434.5,215.5 C 430.818,215.335 427.152,215.501 423.5,216C 418.845,219.843 413.845,223.01 408.5,225.5C 412.176,220.491 416.843,216.657 422.5,214C 425.833,213.333 429.167,213.333 432.5,214C 433.416,214.278 434.082,214.778 434.5,215.5 Z"/></g>
<g><path style="opacity:1" fill="#0fe1db" d="M 273.5,210.5 C 273.286,212.144 273.62,213.644 274.5,215C 279.793,215.977 285.126,216.477 290.5,216.5C 290.5,217.833 290.5,219.167 290.5,220.5C 294.5,220.5 298.5,220.5 302.5,220.5C 302.5,221.833 302.5,223.167 302.5,224.5C 303.833,224.5 305.167,224.5 306.5,224.5C 306.5,225.5 306.5,226.5 306.5,227.5C 307.822,227.33 308.989,227.663 310,228.5C 310.519,227.484 311.353,226.818 312.5,226.5C 314.569,226.824 314.902,227.658 313.5,229C 315.025,230.009 316.692,230.509 318.5,230.5C 318.5,231.167 318.5,231.833 318.5,232.5C 316.883,234.121 315.716,236.121 315,238.5C 313.724,244.492 312.557,250.492 311.5,256.5C 311.167,256.5 310.833,256.5 310.5,256.5C 310.5,255.833 310.5,255.167 310.5,254.5C 311.463,250.204 311.629,245.871 311,241.5C 310.667,241.833 310.333,242.167 310,242.5C 308.708,240.751 307.542,238.918 306.5,237C 302.4,238.418 298.233,238.918 294,238.5C 290.39,236.958 286.556,236.292 282.5,236.5C 282.5,237.833 282.5,239.167 282.5,240.5C 279.833,240.5 277.167,240.5 274.5,240.5C 274.5,239.167 274.5,237.833 274.5,236.5C 271.482,236.665 268.482,236.498 265.5,236C 263.312,231.67 261.645,227.17 260.5,222.5C 266.14,219.858 270.473,215.858 273.5,210.5 Z"/></g>
<g><path style="opacity:1" fill="#ccfcfc" d="M 339.5,222.5 C 341.754,223.124 343.421,224.457 344.5,226.5C 338.852,223.379 332.852,222.712 326.5,224.5C 328.307,222.555 330.64,221.555 333.5,221.5C 335.512,221.84 337.512,222.173 339.5,222.5 Z"/></g>
<g><path style="opacity:1" fill="#04e3e3" d="M 258.5,223.5 C 258.842,222.662 259.508,222.328 260.5,222.5C 261.645,227.17 263.312,231.67 265.5,236C 268.482,236.498 271.482,236.665 274.5,236.5C 274.5,237.833 274.5,239.167 274.5,240.5C 277.167,240.5 279.833,240.5 282.5,240.5C 282.5,239.167 282.5,237.833 282.5,236.5C 286.556,236.292 290.39,236.958 294,238.5C 298.233,238.918 302.4,238.418 306.5,237C 307.542,238.918 308.708,240.751 310,242.5C 310.333,242.167 310.667,241.833 311,241.5C 311.629,245.871 311.463,250.204 310.5,254.5C 309.842,253.602 309.176,252.602 308.5,251.5C 307.264,252.246 305.93,252.579 304.5,252.5C 304.5,253.833 304.5,255.167 304.5,256.5C 297.167,256.5 289.833,256.5 282.5,256.5C 282.5,255.167 282.5,253.833 282.5,252.5C 277.167,252.5 271.833,252.5 266.5,252.5C 266.5,251.167 266.5,249.833 266.5,248.5C 264.5,248.5 262.5,248.5 260.5,248.5C 260.67,247.178 260.337,246.011 259.5,245C 257.754,244.529 256.087,243.862 254.5,243C 255.423,240.959 255.756,238.792 255.5,236.5C 255.203,231.683 256.536,227.517 259.5,224C 259.272,223.601 258.938,223.435 258.5,223.5 Z"/></g>
<g><path style="opacity:1" fill="#baf6f8" d="M 146.5,226.5 C 145.907,231.966 144.74,237.3 143,242.5C 142.392,244.066 141.558,245.4 140.5,246.5C 141.922,239.576 143.922,232.91 146.5,226.5 Z"/></g>
<g><path style="opacity:1" fill="#dcfefe" d="M 318.5,232.5 C 317.351,235.041 317.351,237.541 318.5,240C 317.552,240.483 316.552,240.649 315.5,240.5C 315.311,246.626 314.644,252.626 313.5,258.5C 312.5,258.167 311.833,257.5 311.5,256.5C 312.557,250.492 313.724,244.492 315,238.5C 315.716,236.121 316.883,234.121 318.5,232.5 Z"/></g>
<g><path style="opacity:1" fill="#08e3ea" d="M 255.5,236.5 C 255.756,238.792 255.423,240.959 254.5,243C 256.087,243.862 257.754,244.529 259.5,245C 260.337,246.011 260.67,247.178 260.5,248.5C 262.5,248.5 264.5,248.5 266.5,248.5C 266.5,249.833 266.5,251.167 266.5,252.5C 271.833,252.5 277.167,252.5 282.5,252.5C 282.5,253.833 282.5,255.167 282.5,256.5C 289.833,256.5 297.167,256.5 304.5,256.5C 304.5,255.167 304.5,253.833 304.5,252.5C 305.93,252.579 307.264,252.246 308.5,251.5C 309.176,252.602 309.842,253.602 310.5,254.5C 310.5,255.167 310.5,255.833 310.5,256.5C 309.285,260.626 307.952,264.626 306.5,268.5C 305.566,269.568 305.232,270.901 305.5,272.5C 300.193,272.779 295.193,274.112 290.5,276.5C 289.167,273.833 287.833,273.833 286.5,276.5C 285.481,275.313 284.314,274.313 283,273.5C 282.502,270.518 282.335,267.518 282.5,264.5C 278.5,264.5 274.5,264.5 270.5,264.5C 270.5,263.167 270.5,261.833 270.5,260.5C 269.167,260.5 267.833,260.5 266.5,260.5C 266.5,259.167 266.5,257.833 266.5,256.5C 264.508,256.328 262.842,256.995 261.5,258.5C 260.833,257.167 260.167,255.833 259.5,254.5C 258.833,255.167 258.167,255.833 257.5,256.5C 254.942,252.945 253.609,248.945 253.5,244.5C 253.565,241.572 254.232,238.905 255.5,236.5 Z"/></g>
<g><path style="opacity:1" fill="#08e3ef" d="M 253.5,244.5 C 253.609,248.945 254.942,252.945 257.5,256.5C 258.167,255.833 258.833,255.167 259.5,254.5C 260.167,255.833 260.833,257.167 261.5,258.5C 262.842,256.995 264.508,256.328 266.5,256.5C 266.5,257.833 266.5,259.167 266.5,260.5C 267.833,260.5 269.167,260.5 270.5,260.5C 270.5,261.833 270.5,263.167 270.5,264.5C 274.5,264.5 278.5,264.5 282.5,264.5C 282.335,267.518 282.502,270.518 283,273.5C 284.314,274.313 285.481,275.313 286.5,276.5C 287.833,273.833 289.167,273.833 290.5,276.5C 295.193,274.112 300.193,272.779 305.5,272.5C 305.232,270.901 305.566,269.568 306.5,268.5C 306.281,272.8 305.281,276.8 303.5,280.5C 298.788,280.381 294.288,280.381 290,280.5C 281.746,279.436 273.579,278.103 265.5,276.5C 264.852,278.149 263.852,279.482 262.5,280.5C 261.575,279.359 260.741,279.359 260,280.5C 258.456,277.194 256.622,276.86 254.5,279.5C 252.604,280.466 250.604,280.799 248.5,280.5C 247.793,277.214 247.46,273.881 247.5,270.5C 248.656,261.526 250.656,252.859 253.5,244.5 Z"/></g>
<g><path style="opacity:1" fill="#b7f2f6" d="M 134.5,264.5 C 134.196,267.522 133.696,270.522 133,273.5C 132.292,274.381 131.458,275.047 130.5,275.5C 131.462,271.605 132.796,267.939 134.5,264.5 Z"/></g>
<g><path style="opacity:1" fill="#0ae0f6" d="M 247.5,270.5 C 247.46,273.881 247.793,277.214 248.5,280.5C 250.604,280.799 252.604,280.466 254.5,279.5C 256.622,276.86 258.456,277.194 260,280.5C 260.741,279.359 261.575,279.359 262.5,280.5C 263.852,279.482 264.852,278.149 265.5,276.5C 273.579,278.103 281.746,279.436 290,280.5C 294.288,280.381 298.788,280.381 303.5,280.5C 303.5,282.167 303.5,283.833 303.5,285.5C 283.489,285.833 263.489,285.5 243.5,284.5C 244.858,279.717 246.192,275.05 247.5,270.5 Z"/></g>
<g><path style="opacity:1" fill="#c6f3f7" d="M 130.5,276.5 C 130.403,282.554 128.903,288.22 126,293.5C 125.501,297.821 125.334,302.154 125.5,306.5C 124.391,304.414 123.724,302.08 123.5,299.5C 125.266,291.546 127.599,283.879 130.5,276.5 Z"/></g>
<g><path style="opacity:1" fill="#0ebae3" d="M 297.5,310.5 C 293.894,310.211 290.394,310.544 287,311.5C 285.437,308.956 283.937,308.956 282.5,311.5C 281.252,310.96 280.085,310.293 279,309.5C 277.009,311.905 274.676,312.572 272,311.5C 271.692,312.308 271.192,312.975 270.5,313.5C 268.297,310.185 265.297,308.685 261.5,309C 261.833,309.333 262.167,309.667 262.5,310C 259.905,310.226 257.405,310.726 255,311.5C 251.602,309.129 247.769,307.962 243.5,308C 241.218,306.916 240.884,305.416 242.5,303.5C 247.62,302.489 252.62,302.489 257.5,303.5C 258.308,303.808 258.975,304.308 259.5,305C 257.744,305.202 256.078,305.702 254.5,306.5C 257.201,307.199 259.701,306.532 262,304.5C 263.667,305.833 265.333,307.167 267,308.5C 269.027,308.014 271.193,308.014 273.5,308.5C 274.635,303.206 276.135,303.206 278,308.5C 280.117,306.457 282.45,306.124 285,307.5C 288.012,306.16 291.012,304.827 294,303.5C 295.011,304.337 296.178,304.67 297.5,304.5C 297.5,306.5 297.5,308.5 297.5,310.5 Z"/></g>
<g><path style="opacity:1" fill="#08c7ed" d="M 242.5,303.5 C 240.884,305.416 241.218,306.916 243.5,308C 247.769,307.962 251.602,309.129 255,311.5C 257.405,310.726 259.905,310.226 262.5,310C 262.167,309.667 261.833,309.333 261.5,309C 265.297,308.685 268.297,310.185 270.5,313.5C 271.192,312.975 271.692,312.308 272,311.5C 274.676,312.572 277.009,311.905 279,309.5C 280.085,310.293 281.252,310.96 282.5,311.5C 283.937,308.956 285.437,308.956 287,311.5C 290.394,310.544 293.894,310.211 297.5,310.5C 297.5,311.167 297.5,311.833 297.5,312.5C 295.426,316.383 293.592,316.049 292,311.5C 291.667,312.833 291.333,314.167 291,315.5C 289.667,314.833 288.333,314.167 287,313.5C 280.813,315.421 274.479,316.754 268,317.5C 264.414,317.078 260.914,316.411 257.5,315.5C 257.649,314.448 257.483,313.448 257,312.5C 256.261,313.574 255.261,314.241 254,314.5C 252.503,313.523 251.003,312.523 249.5,311.5C 245.475,314.631 242.475,313.965 240.5,309.5C 239.605,312.839 238.272,315.839 236.5,318.5C 237.437,312.635 238.937,306.969 241,301.5C 241.717,302.044 242.217,302.711 242.5,303.5 Z"/></g>
<g><path style="opacity:1" fill="#00d8fa" d="M 297.5,312.5 C 297.5,314.5 297.5,316.5 297.5,318.5C 295.692,318.491 294.025,318.991 292.5,320C 293.609,321.813 292.942,322.646 290.5,322.5C 290.5,324.5 290.5,326.5 290.5,328.5C 285.167,328.5 279.833,328.5 274.5,328.5C 274.5,329.833 274.5,331.167 274.5,332.5C 273.167,332.5 271.833,332.5 270.5,332.5C 270.5,335.167 270.5,337.833 270.5,340.5C 266.5,340.5 262.5,340.5 258.5,340.5C 258.5,339.167 258.5,337.833 258.5,336.5C 255.833,336.5 253.167,336.5 250.5,336.5C 250.5,334.5 250.5,332.5 250.5,330.5C 247.028,331.037 244.195,330.037 242,327.5C 240.667,330.167 239.333,330.167 238,327.5C 237.283,328.044 236.783,328.711 236.5,329.5C 235.285,325.967 235.285,322.301 236.5,318.5C 238.272,315.839 239.605,312.839 240.5,309.5C 242.475,313.965 245.475,314.631 249.5,311.5C 251.003,312.523 252.503,313.523 254,314.5C 255.261,314.241 256.261,313.574 257,312.5C 257.483,313.448 257.649,314.448 257.5,315.5C 260.914,316.411 264.414,317.078 268,317.5C 274.479,316.754 280.813,315.421 287,313.5C 288.333,314.167 289.667,314.833 291,315.5C 291.333,314.167 291.667,312.833 292,311.5C 293.592,316.049 295.426,316.383 297.5,312.5 Z"/></g>
<g><path style="opacity:1" fill="#02dcfd" d="M 297.5,318.5 C 298.077,322.984 299.744,326.984 302.5,330.5C 301.171,332.059 299.838,333.725 298.5,335.5C 299.855,336.675 299.688,337.675 298,338.5C 297.612,337.572 296.945,336.905 296,336.5C 294.902,337.384 294.402,338.384 294.5,339.5C 293.199,338.522 292.032,338.855 291,340.5C 290.05,339.978 289.216,339.311 288.5,338.5C 286.033,339.111 283.366,340.111 280.5,341.5C 277.618,343.282 277.285,345.115 279.5,347C 278.01,348.772 276.343,348.939 274.5,347.5C 273.667,348.5 272.833,349.5 272,350.5C 270.037,347.054 268.704,347.054 268,350.5C 267,349.833 266,349.167 265,348.5C 263.659,351.022 262.826,353.689 262.5,356.5C 259.203,356.329 258.869,356.995 261.5,358.5C 259.807,359.228 258.307,360.228 257,361.5C 255.959,359.689 254.793,359.355 253.5,360.5C 243.936,352.377 238.269,342.043 236.5,329.5C 236.783,328.711 237.283,328.044 238,327.5C 239.333,330.167 240.667,330.167 242,327.5C 244.195,330.037 247.028,331.037 250.5,330.5C 250.5,332.5 250.5,334.5 250.5,336.5C 253.167,336.5 255.833,336.5 258.5,336.5C 258.5,337.833 258.5,339.167 258.5,340.5C 262.5,340.5 266.5,340.5 270.5,340.5C 270.5,337.833 270.5,335.167 270.5,332.5C 271.833,332.5 273.167,332.5 274.5,332.5C 274.5,331.167 274.5,329.833 274.5,328.5C 279.833,328.5 285.167,328.5 290.5,328.5C 290.5,326.5 290.5,324.5 290.5,322.5C 292.942,322.646 293.609,321.813 292.5,320C 294.025,318.991 295.692,318.491 297.5,318.5 Z"/></g>
<g><path style="opacity:1" fill="#17e5fd" d="M 302.5,330.5 C 306.527,336.527 311.527,341.527 317.5,345.5C 316.448,345.351 315.448,345.517 314.5,346C 312.631,348.613 310.297,350.779 307.5,352.5C 306.514,348.625 305.347,348.625 304,352.5C 303,351.167 302,351.167 301,352.5C 300.333,349.833 299.667,349.833 299,352.5C 297.387,351.378 296.22,351.878 295.5,354C 296.167,354.667 296.833,355.333 297.5,356C 294.358,357.325 292.358,359.158 291.5,361.5C 290.167,360.167 288.833,358.833 287.5,357.5C 285.885,358.154 284.218,358.654 282.5,359C 283.167,359.333 283.833,359.667 284.5,360C 283.107,361.171 282.273,362.671 282,364.5C 280.913,362.068 280.413,362.402 280.5,365.5C 278.54,366.138 276.707,366.138 275,365.5C 273.456,368.264 272.289,368.097 271.5,365C 269.865,364.46 268.532,364.96 267.5,366.5C 265.672,363.944 264.338,364.277 263.5,367.5C 259.817,365.659 256.484,363.326 253.5,360.5C 254.793,359.355 255.959,359.689 257,361.5C 258.307,360.228 259.807,359.228 261.5,358.5C 258.869,356.995 259.203,356.329 262.5,356.5C 262.826,353.689 263.659,351.022 265,348.5C 266,349.167 267,349.833 268,350.5C 268.704,347.054 270.037,347.054 272,350.5C 272.833,349.5 273.667,348.5 274.5,347.5C 276.343,348.939 278.01,348.772 279.5,347C 277.285,345.115 277.618,343.282 280.5,341.5C 283.366,340.111 286.033,339.111 288.5,338.5C 289.216,339.311 290.05,339.978 291,340.5C 292.032,338.855 293.199,338.522 294.5,339.5C 294.402,338.384 294.902,337.384 296,336.5C 296.945,336.905 297.612,337.572 298,338.5C 299.688,337.675 299.855,336.675 298.5,335.5C 299.838,333.725 301.171,332.059 302.5,330.5 Z"/></g>
<g><path style="opacity:1" fill="#36ecfd" d="M 317.5,345.5 C 317.5,346.5 317.5,347.5 317.5,348.5C 319.942,348.354 320.609,349.187 319.5,351C 317.82,351.034 316.32,351.201 315,351.5C 314.342,353.108 314.842,354.275 316.5,355C 313.177,357.763 309.51,358.263 305.5,356.5C 305.649,355.448 305.483,354.448 305,353.5C 304.355,354.646 303.522,355.646 302.5,356.5C 303.376,357.251 304.376,357.751 305.5,358C 303.956,358.29 302.623,358.956 301.5,360C 303.832,359.351 306.166,359.518 308.5,360.5C 309.192,359.975 309.692,359.308 310,358.5C 311.113,359.76 311.28,360.927 310.5,362C 307.741,362.202 304.908,362.036 302,361.5C 301.082,363.632 299.749,364.299 298,363.5C 297.667,364.5 297.333,365.5 297,366.5C 295.951,365.483 294.784,365.316 293.5,366C 292.087,368.202 290.587,370.368 289,372.5C 286.649,369.79 284.649,370.123 283,373.5C 282.667,373.167 282.333,372.833 282,372.5C 281.717,375.742 280.883,376.076 279.5,373.5C 281.015,372.409 281.848,371.076 282,369.5C 279.958,369.818 277.791,369.985 275.5,370C 278.167,370.667 278.167,371.333 275.5,372C 276.5,372.333 277.5,372.667 278.5,373C 276.09,373.602 274.09,374.102 272.5,374.5C 269.19,372.518 266.19,370.185 263.5,367.5C 264.338,364.277 265.672,363.944 267.5,366.5C 268.532,364.96 269.865,364.46 271.5,365C 272.289,368.097 273.456,368.264 275,365.5C 276.707,366.138 278.54,366.138 280.5,365.5C 280.413,362.402 280.913,362.068 282,364.5C 282.273,362.671 283.107,361.171 284.5,360C 283.833,359.667 283.167,359.333 282.5,359C 284.218,358.654 285.885,358.154 287.5,357.5C 288.833,358.833 290.167,360.167 291.5,361.5C 292.358,359.158 294.358,357.325 297.5,356C 296.833,355.333 296.167,354.667 295.5,354C 296.22,351.878 297.387,351.378 299,352.5C 299.667,349.833 300.333,349.833 301,352.5C 302,351.167 303,351.167 304,352.5C 305.347,348.625 306.514,348.625 307.5,352.5C 310.297,350.779 312.631,348.613 314.5,346C 315.448,345.517 316.448,345.351 317.5,345.5 Z"/></g>
<g><path style="opacity:1" fill="#54f1fc" d="M 317.5,345.5 C 322.427,348.42 327.094,351.754 331.5,355.5C 331.5,356.167 331.5,356.833 331.5,357.5C 330.957,357.56 330.624,357.893 330.5,358.5C 332.04,359.532 332.54,360.865 332,362.5C 331.667,361.833 331.333,361.167 331,360.5C 329.204,361.767 327.371,361.767 325.5,360.5C 324.707,361.355 325.04,362.189 326.5,363C 325.101,363.595 323.768,363.428 322.5,362.5C 321.476,363.853 320.143,364.52 318.5,364.5C 318.657,363.127 318.49,361.793 318,360.5C 315.274,362.114 312.44,363.614 309.5,365C 311.167,365.667 312.833,365.667 314.5,365C 313.304,364.346 313.304,363.846 314.5,363.5C 315.745,364.955 315.578,366.289 314,367.5C 312.594,366.332 311.428,366.665 310.5,368.5C 309.833,367.833 309.167,367.167 308.5,366.5C 305.049,367.814 301.716,368.981 298.5,370C 300.657,368.915 300.824,367.749 299,366.5C 297.627,368.695 297.294,371.029 298,373.5C 298.317,371.699 298.984,371.366 300,372.5C 300.829,375.674 299.829,376.674 297,375.5C 296.077,376.759 295.243,378.092 294.5,379.5C 293.284,378.998 292.117,378.665 291,378.5C 289.972,380.361 288.472,381.695 286.5,382.5C 284.484,381.822 282.484,381.156 280.5,380.5C 277.545,378.878 274.878,376.878 272.5,374.5C 274.09,374.102 276.09,373.602 278.5,373C 277.5,372.667 276.5,372.333 275.5,372C 278.167,371.333 278.167,370.667 275.5,370C 277.791,369.985 279.958,369.818 282,369.5C 281.848,371.076 281.015,372.409 279.5,373.5C 280.883,376.076 281.717,375.742 282,372.5C 282.333,372.833 282.667,373.167 283,373.5C 284.649,370.123 286.649,369.79 289,372.5C 290.587,370.368 292.087,368.202 293.5,366C 294.784,365.316 295.951,365.483 297,366.5C 297.333,365.5 297.667,364.5 298,363.5C 299.749,364.299 301.082,363.632 302,361.5C 304.908,362.036 307.741,362.202 310.5,362C 311.28,360.927 311.113,359.76 310,358.5C 309.692,359.308 309.192,359.975 308.5,360.5C 306.166,359.518 303.832,359.351 301.5,360C 302.623,358.956 303.956,358.29 305.5,358C 304.376,357.751 303.376,357.251 302.5,356.5C 303.522,355.646 304.355,354.646 305,353.5C 305.483,354.448 305.649,355.448 305.5,356.5C 309.51,358.263 313.177,357.763 316.5,355C 314.842,354.275 314.342,353.108 315,351.5C 316.32,351.201 317.82,351.034 319.5,351C 320.609,349.187 319.942,348.354 317.5,348.5C 317.5,347.5 317.5,346.5 317.5,345.5 Z"/></g>
<g><path style="opacity:1" fill="#72f6fd" d="M 331.5,357.5 C 332.836,359.307 334.503,360.807 336.5,362C 335.151,362.772 334.318,363.939 334,365.5C 333,366.833 332,366.833 331,365.5C 330.667,366.167 330.333,366.833 330,367.5C 326.21,365.085 322.544,366.085 319,370.5C 317.187,369.391 316.354,370.058 316.5,372.5C 314.857,372.52 313.524,371.853 312.5,370.5C 311.713,371.242 311.047,372.075 310.5,373C 304.764,373.243 301.598,376.076 301,381.5C 300.311,380.643 299.478,379.977 298.5,379.5C 297.304,379.846 297.304,380.346 298.5,381C 296.567,381.251 294.734,381.751 293,382.5C 292.667,382.167 292.333,381.833 292,381.5C 290.811,383.233 289.644,384.9 288.5,386.5C 285.109,385.471 282.443,383.471 280.5,380.5C 282.484,381.156 284.484,381.822 286.5,382.5C 288.472,381.695 289.972,380.361 291,378.5C 292.117,378.665 293.284,378.998 294.5,379.5C 295.243,378.092 296.077,376.759 297,375.5C 299.829,376.674 300.829,375.674 300,372.5C 298.984,371.366 298.317,371.699 298,373.5C 297.294,371.029 297.627,368.695 299,366.5C 300.824,367.749 300.657,368.915 298.5,370C 301.716,368.981 305.049,367.814 308.5,366.5C 309.167,367.167 309.833,367.833 310.5,368.5C 311.428,366.665 312.594,366.332 314,367.5C 315.578,366.289 315.745,364.955 314.5,363.5C 313.304,363.846 313.304,364.346 314.5,365C 312.833,365.667 311.167,365.667 309.5,365C 312.44,363.614 315.274,362.114 318,360.5C 318.49,361.793 318.657,363.127 318.5,364.5C 320.143,364.52 321.476,363.853 322.5,362.5C 323.768,363.428 325.101,363.595 326.5,363C 325.04,362.189 324.707,361.355 325.5,360.5C 327.371,361.767 329.204,361.767 331,360.5C 331.333,361.167 331.667,361.833 332,362.5C 332.54,360.865 332.04,359.532 330.5,358.5C 330.624,357.893 330.957,357.56 331.5,357.5 Z"/></g>
<g><path style="opacity:1" fill="#8cf9fd" d="M 331.5,355.5 C 334.81,357.482 337.81,359.815 340.5,362.5C 340.676,364.991 340.676,367.491 340.5,370C 337.881,369.917 335.214,369.75 332.5,369.5C 332.808,371.924 332.474,374.257 331.5,376.5C 330.035,374.576 328.368,374.243 326.5,375.5C 325.778,375.918 325.278,376.584 325,377.5C 323.806,376.57 322.473,375.903 321,375.5C 318.901,376.287 316.734,376.62 314.5,376.5C 314.5,378.5 314.5,380.5 314.5,382.5C 311.912,382.543 309.746,383.543 308,385.5C 306.431,385.153 304.598,384.986 302.5,385C 301.692,385.308 301.025,385.808 300.5,386.5C 301.833,387.5 301.833,388.5 300.5,389.5C 298.257,390.474 295.924,390.808 293.5,390.5C 291.251,389.92 289.585,388.587 288.5,386.5C 289.644,384.9 290.811,383.233 292,381.5C 292.333,381.833 292.667,382.167 293,382.5C 294.734,381.751 296.567,381.251 298.5,381C 297.304,380.346 297.304,379.846 298.5,379.5C 299.478,379.977 300.311,380.643 301,381.5C 301.598,376.076 304.764,373.243 310.5,373C 311.047,372.075 311.713,371.242 312.5,370.5C 313.524,371.853 314.857,372.52 316.5,372.5C 316.354,370.058 317.187,369.391 319,370.5C 322.544,366.085 326.21,365.085 330,367.5C 330.333,366.833 330.667,366.167 331,365.5C 332,366.833 333,366.833 334,365.5C 334.318,363.939 335.151,362.772 336.5,362C 334.503,360.807 332.836,359.307 331.5,357.5C 331.5,356.833 331.5,356.167 331.5,355.5 Z"/></g>
<g><path style="opacity:1" fill="#b4fcfd" d="M 340.5,362.5 C 344.538,365.512 348.538,368.512 352.5,371.5C 350.401,372.752 348.401,374.252 346.5,376C 347.938,376.219 349.271,376.719 350.5,377.5C 349.5,377.833 348.5,378.167 347.5,378.5C 344.999,377.756 342.666,376.923 340.5,376C 340.833,376.333 341.167,376.667 341.5,377C 338.619,378.253 336.785,380.42 336,383.5C 335.676,381.431 334.842,381.098 333.5,382.5C 331.508,386.998 328.175,389.831 323.5,391C 319.006,395.118 313.672,397.618 307.5,398.5C 306.353,398.182 305.519,397.516 305,396.5C 304.329,397.252 303.496,397.586 302.5,397.5C 300.589,396.925 298.922,395.925 297.5,394.5C 297.75,393.078 298.583,392.078 300,391.5C 301.604,392.649 303.27,392.649 305,391.5C 307.2,394.243 308.866,393.909 310,390.5C 311.545,391.821 312.711,391.488 313.5,389.5C 315.045,388.548 316.712,388.215 318.5,388.5C 319.019,384.788 321.186,382.455 325,381.5C 325.333,382.5 325.667,383.5 326,384.5C 326.318,382.939 327.151,381.772 328.5,381C 326.808,379.599 326.141,377.766 326.5,375.5C 328.368,374.243 330.035,374.576 331.5,376.5C 332.474,374.257 332.808,371.924 332.5,369.5C 335.214,369.75 337.881,369.917 340.5,370C 340.676,367.491 340.676,364.991 340.5,362.5 Z"/></g>
<g><path style="opacity:1" fill="#dafdfd" d="M 362.5,379.5 C 364.404,379.738 365.738,380.738 366.5,382.5C 364.289,382.967 362.289,383.967 360.5,385.5C 358.271,390.948 356.604,390.781 355.5,385C 353.975,383.991 352.308,383.491 350.5,383.5C 352.484,386.861 351.484,388.528 347.5,388.5C 347.785,390.288 347.452,391.955 346.5,393.5C 345.707,393.069 344.873,392.735 344,392.5C 342.403,393.885 340.57,394.551 338.5,394.5C 338.719,395.675 338.386,396.675 337.5,397.5C 334.747,399.523 331.747,401.023 328.5,402C 328.833,402.333 329.167,402.667 329.5,403C 327.182,403.342 325.015,402.842 323,401.5C 322.558,403.679 321.558,404.345 320,403.5C 317.689,404.397 315.856,405.73 314.5,407.5C 311.833,405.5 309.167,403.5 306.5,401.5C 307.574,399.784 309.241,398.784 311.5,398.5C 315.221,400.335 317.554,399.335 318.5,395.5C 319.833,395.5 321.167,395.5 322.5,395.5C 322.5,396.5 322.5,397.5 322.5,398.5C 326.716,396.803 331.049,395.469 335.5,394.5C 335.656,390.865 336.822,390.532 339,393.5C 339.692,392.975 340.192,392.308 340.5,391.5C 336.35,387.108 337.35,385.775 343.5,387.5C 344.604,386.369 344.271,385.535 342.5,385C 343.931,383.438 345.431,381.938 347,380.5C 348.343,384.361 349.843,384.361 351.5,380.5C 352.216,381.311 353.05,381.978 354,382.5C 356.502,380.566 359.336,379.566 362.5,379.5 Z"/></g>
<g><path style="opacity:1" fill="#a4fbfc" d="M 326.5,375.5 C 326.141,377.766 326.808,379.599 328.5,381C 327.151,381.772 326.318,382.939 326,384.5C 325.667,383.5 325.333,382.5 325,381.5C 321.186,382.455 319.019,384.788 318.5,388.5C 316.712,388.215 315.045,388.548 313.5,389.5C 312.711,391.488 311.545,391.821 310,390.5C 308.866,393.909 307.2,394.243 305,391.5C 303.27,392.649 301.604,392.649 300,391.5C 298.583,392.078 297.75,393.078 297.5,394.5C 295.833,393.5 294.5,392.167 293.5,390.5C 295.924,390.808 298.257,390.474 300.5,389.5C 301.833,388.5 301.833,387.5 300.5,386.5C 301.025,385.808 301.692,385.308 302.5,385C 304.598,384.986 306.431,385.153 308,385.5C 309.746,383.543 311.912,382.543 314.5,382.5C 314.5,380.5 314.5,378.5 314.5,376.5C 316.734,376.62 318.901,376.287 321,375.5C 322.473,375.903 323.806,376.57 325,377.5C 325.278,376.584 325.778,375.918 326.5,375.5 Z"/></g>
<g><path style="opacity:1" fill="#fcfefe" d="M 372.5,387.5 C 389.897,406.451 392.063,427.118 379,449.5C 357.5,472.333 335.333,494.5 312.5,516C 290.197,520.956 279.364,512.122 280,489.5C 281.139,485.888 282.806,482.554 285,479.5C 300.36,464.14 315.694,448.806 331,433.5C 332.457,430.634 332.79,427.634 332,424.5C 329.381,420.05 326.214,416.05 322.5,412.5C 323.348,410.907 324.681,409.74 326.5,409C 324.717,407.933 324.217,406.433 325,404.5C 327.498,406.154 329.998,407.82 332.5,409.5C 332.88,407.979 333.046,406.313 333,404.5C 337.577,408.317 341.744,407.817 345.5,403C 347.134,402.506 348.801,402.34 350.5,402.5C 350.343,401.127 350.51,399.793 351,398.5C 352.726,399.576 354.559,399.743 356.5,399C 355.939,397.434 356.606,396.101 358.5,395C 363.337,393.452 368.003,390.952 372.5,387.5 Z"/></g>
<g><path style="opacity:1" fill="#11beea" d="M 206.5,395.5 C 208.41,397.165 210.41,397.499 212.5,396.5C 213.647,396.818 214.481,397.484 215,398.5C 215.718,397.549 216.551,397.383 217.5,398C 217.214,399.388 217.548,400.888 218.5,402.5C 217.504,402.414 216.671,402.748 216,403.5C 215.717,400.258 214.883,399.924 213.5,402.5C 212.575,401.359 211.741,401.359 211,402.5C 209.902,401.033 208.402,400.199 206.5,400C 204.388,399.094 203.555,397.594 204,395.5C 204.977,396.774 205.811,396.774 206.5,395.5 Z"/></g>
<g><path style="opacity:1" fill="#cbfcfd" d="M 352.5,371.5 C 356.238,373.697 359.571,376.364 362.5,379.5C 359.336,379.566 356.502,380.566 354,382.5C 353.05,381.978 352.216,381.311 351.5,380.5C 349.843,384.361 348.343,384.361 347,380.5C 345.431,381.938 343.931,383.438 342.5,385C 344.271,385.535 344.604,386.369 343.5,387.5C 337.35,385.775 336.35,387.108 340.5,391.5C 340.192,392.308 339.692,392.975 339,393.5C 336.822,390.532 335.656,390.865 335.5,394.5C 331.049,395.469 326.716,396.803 322.5,398.5C 322.5,397.5 322.5,396.5 322.5,395.5C 321.167,395.5 319.833,395.5 318.5,395.5C 317.554,399.335 315.221,400.335 311.5,398.5C 309.241,398.784 307.574,399.784 306.5,401.5C 304.833,400.5 303.5,399.167 302.5,397.5C 303.496,397.586 304.329,397.252 305,396.5C 305.519,397.516 306.353,398.182 307.5,398.5C 313.672,397.618 319.006,395.118 323.5,391C 328.175,389.831 331.508,386.998 333.5,382.5C 334.842,381.098 335.676,381.431 336,383.5C 336.785,380.42 338.619,378.253 341.5,377C 341.167,376.667 340.833,376.333 340.5,376C 342.666,376.923 344.999,377.756 347.5,378.5C 348.5,378.167 349.5,377.833 350.5,377.5C 349.271,376.719 347.938,376.219 346.5,376C 348.401,374.252 350.401,372.752 352.5,371.5 Z"/></g>
<g><path style="opacity:1" fill="#e9fdfd" d="M 366.5,382.5 C 368.909,383.701 370.909,385.367 372.5,387.5C 368.003,390.952 363.337,393.452 358.5,395C 356.606,396.101 355.939,397.434 356.5,399C 354.559,399.743 352.726,399.576 351,398.5C 350.51,399.793 350.343,401.127 350.5,402.5C 348.801,402.34 347.134,402.506 345.5,403C 341.744,407.817 337.577,408.317 333,404.5C 333.046,406.313 332.88,407.979 332.5,409.5C 329.998,407.82 327.498,406.154 325,404.5C 324.217,406.433 324.717,407.933 326.5,409C 324.681,409.74 323.348,410.907 322.5,412.5C 319.525,411.345 316.858,409.678 314.5,407.5C 315.856,405.73 317.689,404.397 320,403.5C 321.558,404.345 322.558,403.679 323,401.5C 325.015,402.842 327.182,403.342 329.5,403C 329.167,402.667 328.833,402.333 328.5,402C 331.747,401.023 334.747,399.523 337.5,397.5C 338.386,396.675 338.719,395.675 338.5,394.5C 340.57,394.551 342.403,393.885 344,392.5C 344.873,392.735 345.707,393.069 346.5,393.5C 347.452,391.955 347.785,390.288 347.5,388.5C 351.484,388.528 352.484,386.861 350.5,383.5C 352.308,383.491 353.975,383.991 355.5,385C 356.604,390.781 358.271,390.948 360.5,385.5C 362.289,383.967 364.289,382.967 366.5,382.5 Z"/></g>
<g><path style="opacity:1" fill="#1adafa" d="M 206.5,395.5 C 205.811,396.774 204.977,396.774 204,395.5C 203.555,397.594 204.388,399.094 206.5,400C 208.402,400.199 209.902,401.033 211,402.5C 211.741,401.359 212.575,401.359 213.5,402.5C 214.883,399.924 215.717,400.258 216,403.5C 216.671,402.748 217.504,402.414 218.5,402.5C 219.222,402.082 219.722,401.416 220,400.5C 220.317,402.301 220.984,402.634 222,401.5C 223.401,403.192 225.234,403.859 227.5,403.5C 227.649,404.552 227.483,405.552 227,406.5C 226.577,405.044 225.744,404.544 224.5,405C 225.103,407.071 226.436,408.238 228.5,408.5C 228.953,409.458 229.619,410.292 230.5,411C 228.405,411.556 228.238,412.056 230,412.5C 230.945,412.095 231.612,411.428 232,410.5C 232.49,411.793 232.657,413.127 232.5,414.5C 234.46,415.138 236.293,415.138 238,414.5C 238.708,415.381 239.542,416.047 240.5,416.5C 239.5,418.167 238.167,419.5 236.5,420.5C 234.882,419.549 233.549,418.216 232.5,416.5C 231.833,416.833 231.167,417.167 230.5,417.5C 229.107,416.137 227.441,415.304 225.5,415C 226.654,414.086 226.487,413.253 225,412.5C 224.667,413.5 224.333,414.5 224,415.5C 222.382,415.111 221.215,413.778 220.5,411.5C 215.997,412.83 214.663,411.663 216.5,408C 211.897,408.453 211.23,407.453 214.5,405C 213.451,404.508 212.451,404.674 211.5,405.5C 209.678,401.898 208.678,401.898 208.5,405.5C 206.201,404.862 204.034,403.862 202,402.5C 201.383,403.449 201.549,404.282 202.5,405C 199.609,407.384 198.609,407.05 199.5,404C 199,402.5 198.5,401 198,399.5C 197.667,400.5 197.333,401.5 197,402.5C 195.331,400.831 194.498,398.831 194.5,396.5C 196.127,394.37 197.96,392.37 200,390.5C 200.23,394.483 201.563,395.149 204,392.5C 204.377,393.942 205.21,394.942 206.5,395.5 Z"/></g>
<g><path style="opacity:1" fill="#15c5ed" d="M 240.5,416.5 C 239.542,416.047 238.708,415.381 238,414.5C 236.293,415.138 234.46,415.138 232.5,414.5C 232.657,413.127 232.49,411.793 232,410.5C 231.612,411.428 230.945,412.095 230,412.5C 228.238,412.056 228.405,411.556 230.5,411C 229.619,410.292 228.953,409.458 228.5,408.5C 228.843,406.775 229.843,406.275 231.5,407C 230.167,407.667 230.167,408.333 231.5,409C 232.9,410.438 234.567,411.271 236.5,411.5C 236.351,410.448 236.517,409.448 237,408.5C 237.219,409.938 237.719,411.271 238.5,412.5C 239.167,411.167 239.833,409.833 240.5,408.5C 242.115,409.154 243.782,409.654 245.5,410C 244.744,412.336 243.077,414.503 240.5,416.5 Z"/></g>
<g><path style="opacity:1" fill="#3de8fc" d="M 194.5,396.5 C 194.498,398.831 195.331,400.831 197,402.5C 197.333,401.5 197.667,400.5 198,399.5C 198.5,401 199,402.5 199.5,404C 198.609,407.05 199.609,407.384 202.5,405C 201.549,404.282 201.383,403.449 202,402.5C 204.034,403.862 206.201,404.862 208.5,405.5C 208.678,401.898 209.678,401.898 211.5,405.5C 212.451,404.674 213.451,404.508 214.5,405C 211.23,407.453 211.897,408.453 216.5,408C 214.663,411.663 215.997,412.83 220.5,411.5C 221.215,413.778 222.382,415.111 224,415.5C 224.333,414.5 224.667,413.5 225,412.5C 226.487,413.253 226.654,414.086 225.5,415C 227.441,415.304 229.107,416.137 230.5,417.5C 231.167,417.167 231.833,416.833 232.5,416.5C 233.549,418.216 234.882,419.549 236.5,420.5C 233.86,423.806 230.86,426.806 227.5,429.5C 226.737,428.732 225.737,428.232 224.5,428C 227.167,427.333 227.167,426.667 224.5,426C 225.5,425.667 226.5,425.333 227.5,425C 225.506,423.632 223.506,423.132 221.5,423.5C 222.09,422.201 223.09,421.368 224.5,421C 222.633,420.289 221.133,420.789 220,422.5C 219.439,421.978 218.772,421.645 218,421.5C 215.79,422.85 213.456,423.85 211,424.5C 210.383,423.551 210.549,422.718 211.5,422C 209.87,420.787 208.036,419.954 206,419.5C 203.22,420.937 200.886,422.27 199,423.5C 197.647,421.566 196.147,419.733 194.5,418C 197.131,416.309 196.797,415.142 193.5,414.5C 194.025,413.808 194.692,413.308 195.5,413C 194.167,412.667 192.833,412.333 191.5,412C 190.167,411.333 190.167,410.667 191.5,410C 190.517,409.409 189.85,409.743 189.5,411C 189.82,412.653 190.82,413.653 192.5,414C 192,414.167 191.5,414.333 191,414.5C 188.733,413.729 186.9,412.396 185.5,410.5C 183.605,411.973 181.939,413.64 180.5,415.5C 179.707,414.645 180.04,413.811 181.5,413C 180.207,412.51 178.873,412.343 177.5,412.5C 183.14,407.195 188.807,401.861 194.5,396.5 Z"/></g>
<g><path style="opacity:1" fill="#67f1fc" d="M 227.5,429.5 C 226.167,431.5 224.5,433.167 222.5,434.5C 221.354,432.333 219.521,431 217,430.5C 216.692,431.308 216.192,431.975 215.5,432.5C 215.002,431.397 214.669,430.397 214.5,429.5C 213.332,431.397 211.665,431.564 209.5,430C 206.421,428.752 203.754,426.919 201.5,424.5C 200.692,424.808 200.025,425.308 199.5,426C 200.711,426.893 200.711,427.726 199.5,428.5C 197.606,427.399 196.939,426.066 197.5,424.5C 195.629,425.767 193.796,425.767 192,424.5C 191.667,425.5 191.333,426.5 191,427.5C 190.581,426.328 189.915,425.328 189,424.5C 185.62,424.355 182.62,425.022 180,426.5C 176.657,426.352 174.657,424.685 174,421.5C 173.632,422.91 172.799,423.91 171.5,424.5C 170.476,423.147 169.143,422.48 167.5,422.5C 170.5,418.833 173.833,415.5 177.5,412.5C 178.873,412.343 180.207,412.51 181.5,413C 180.04,413.811 179.707,414.645 180.5,415.5C 181.939,413.64 183.605,411.973 185.5,410.5C 186.9,412.396 188.733,413.729 191,414.5C 191.5,414.333 192,414.167 192.5,414C 190.82,413.653 189.82,412.653 189.5,411C 189.85,409.743 190.517,409.409 191.5,410C 190.167,410.667 190.167,411.333 191.5,412C 192.833,412.333 194.167,412.667 195.5,413C 194.692,413.308 194.025,413.808 193.5,414.5C 196.797,415.142 197.131,416.309 194.5,418C 196.147,419.733 197.647,421.566 199,423.5C 200.886,422.27 203.22,420.937 206,419.5C 208.036,419.954 209.87,420.787 211.5,422C 210.549,422.718 210.383,423.551 211,424.5C 213.456,423.85 215.79,422.85 218,421.5C 218.772,421.645 219.439,421.978 220,422.5C 221.133,420.789 222.633,420.289 224.5,421C 223.09,421.368 222.09,422.201 221.5,423.5C 223.506,423.132 225.506,423.632 227.5,425C 226.5,425.333 225.5,425.667 224.5,426C 227.167,426.667 227.167,427.333 224.5,428C 225.737,428.232 226.737,428.732 227.5,429.5 Z"/></g>
<g><path style="opacity:1" fill="#88f4fc" d="M 222.5,434.5 C 220.053,437.032 217.386,439.366 214.5,441.5C 210.537,440.965 207.204,439.298 204.5,436.5C 203.833,437.167 203.167,437.833 202.5,438.5C 200.808,436.515 198.475,434.515 195.5,432.5C 194.094,433.951 192.594,435.284 191,436.5C 188.266,435.638 188.099,434.805 190.5,434C 189.167,433.667 187.833,433.333 186.5,433C 187.973,432.29 188.64,431.124 188.5,429.5C 185.881,429.768 183.381,429.435 181,428.5C 180.383,429.449 180.549,430.282 181.5,431C 178.012,431.637 174.679,431.137 171.5,429.5C 169.035,429.943 166.702,430.276 164.5,430.5C 164.631,431.239 164.464,431.906 164,432.5C 163.612,431.572 162.945,430.905 162,430.5C 160.869,431.335 160.036,431.335 159.5,430.5C 161.833,427.5 164.5,424.833 167.5,422.5C 169.143,422.48 170.476,423.147 171.5,424.5C 172.799,423.91 173.632,422.91 174,421.5C 174.657,424.685 176.657,426.352 180,426.5C 182.62,425.022 185.62,424.355 189,424.5C 189.915,425.328 190.581,426.328 191,427.5C 191.333,426.5 191.667,425.5 192,424.5C 193.796,425.767 195.629,425.767 197.5,424.5C 196.939,426.066 197.606,427.399 199.5,428.5C 200.711,427.726 200.711,426.893 199.5,426C 200.025,425.308 200.692,424.808 201.5,424.5C 203.754,426.919 206.421,428.752 209.5,430C 211.665,431.564 213.332,431.397 214.5,429.5C 214.669,430.397 215.002,431.397 215.5,432.5C 216.192,431.975 216.692,431.308 217,430.5C 219.521,431 221.354,432.333 222.5,434.5 Z"/></g>
<g><path style="opacity:1" fill="#a4f8fc" d="M 214.5,441.5 C 213.167,443.5 211.5,445.167 209.5,446.5C 208.25,446.423 207.417,445.756 207,444.5C 203.967,445.999 202.134,444.999 201.5,441.5C 200.02,439.397 198.853,439.397 198,441.5C 196.332,438.509 193.999,437.509 191,438.5C 189.622,436.146 188.122,436.146 186.5,438.5C 184.653,437.489 182.82,436.489 181,435.5C 179.684,438.028 178.517,438.028 177.5,435.5C 176.5,436.833 175.5,436.833 174.5,435.5C 173.483,438.028 172.316,438.028 171,435.5C 166.131,438.473 164.631,437.14 166.5,431.5C 166.043,430.702 165.376,430.369 164.5,430.5C 166.702,430.276 169.035,429.943 171.5,429.5C 174.679,431.137 178.012,431.637 181.5,431C 180.549,430.282 180.383,429.449 181,428.5C 183.381,429.435 185.881,429.768 188.5,429.5C 188.64,431.124 187.973,432.29 186.5,433C 187.833,433.333 189.167,433.667 190.5,434C 188.099,434.805 188.266,435.638 191,436.5C 192.594,435.284 194.094,433.951 195.5,432.5C 198.475,434.515 200.808,436.515 202.5,438.5C 203.167,437.833 203.833,437.167 204.5,436.5C 207.204,439.298 210.537,440.965 214.5,441.5 Z"/></g>
<g><path style="opacity:1" fill="#b5fbfd" d="M 159.5,430.5 C 160.036,431.335 160.869,431.335 162,430.5C 162.945,430.905 163.612,431.572 164,432.5C 164.464,431.906 164.631,431.239 164.5,430.5C 165.376,430.369 166.043,430.702 166.5,431.5C 164.631,437.14 166.131,438.473 171,435.5C 172.316,438.028 173.483,438.028 174.5,435.5C 175.5,436.833 176.5,436.833 177.5,435.5C 178.517,438.028 179.684,438.028 181,435.5C 182.82,436.489 184.653,437.489 186.5,438.5C 188.122,436.146 189.622,436.146 191,438.5C 193.999,437.509 196.332,438.509 198,441.5C 198.853,439.397 200.02,439.397 201.5,441.5C 200.234,442.09 198.901,442.59 197.5,443C 198.711,443.893 198.711,444.726 197.5,445.5C 194.994,444.108 192.494,442.775 190,441.5C 188.667,442.833 187.333,442.833 186,441.5C 184.159,444.648 181.826,444.648 179,441.5C 176.658,442.178 174.324,441.845 172,440.5C 170.258,442.973 168.425,442.973 166.5,440.5C 165.137,441.198 163.971,441.198 163,440.5C 161.316,442.459 159.316,442.459 157,440.5C 156.692,441.308 156.192,441.975 155.5,442.5C 155.891,441.109 155.058,440.109 153,439.5C 151.13,441.219 148.963,442.219 146.5,442.5C 150.602,438.277 154.935,434.277 159.5,430.5 Z"/></g>
<g><path style="opacity:1" fill="#c4fbfd" d="M 201.5,441.5 C 202.134,444.999 203.967,445.999 207,444.5C 207.417,445.756 208.25,446.423 209.5,446.5C 208.167,448.5 206.5,450.167 204.5,451.5C 204.338,449.176 203.172,447.509 201,446.5C 199.01,448.656 196.843,450.656 194.5,452.5C 190.783,450.938 186.95,449.605 183,448.5C 182,448.833 181,449.167 180,449.5C 176.701,447.471 173.201,445.804 169.5,444.5C 167.289,445.123 165.289,446.123 163.5,447.5C 161.5,446.5 159.5,445.5 157.5,444.5C 157.002,445.603 156.669,446.603 156.5,447.5C 155.15,446.05 153.484,445.383 151.5,445.5C 151.649,444.448 151.483,443.448 151,442.5C 150.777,444.881 149.61,446.547 147.5,447.5C 145.234,447.141 143.401,447.808 142,449.5C 141.536,448.906 141.369,448.239 141.5,447.5C 142.833,445.5 144.5,443.833 146.5,442.5C 148.963,442.219 151.13,441.219 153,439.5C 155.058,440.109 155.891,441.109 155.5,442.5C 156.192,441.975 156.692,441.308 157,440.5C 159.316,442.459 161.316,442.459 163,440.5C 163.971,441.198 165.137,441.198 166.5,440.5C 168.425,442.973 170.258,442.973 172,440.5C 174.324,441.845 176.658,442.178 179,441.5C 181.826,444.648 184.159,444.648 186,441.5C 187.333,442.833 188.667,442.833 190,441.5C 192.494,442.775 194.994,444.108 197.5,445.5C 198.711,444.726 198.711,443.893 197.5,443C 198.901,442.59 200.234,442.09 201.5,441.5 Z"/></g>
<g><path style="opacity:1" fill="#e0fdfd" d="M 141.5,447.5 C 141.369,448.239 141.536,448.906 142,449.5C 143.401,447.808 145.234,447.141 147.5,447.5C 147.586,448.496 147.252,449.329 146.5,450C 148.479,450.684 150.146,450.184 151.5,448.5C 152.548,449.383 153.715,450.05 155,450.5C 158.155,450.578 161.322,450.578 164.5,450.5C 166.691,451.743 169.024,452.576 171.5,453C 170.304,453.654 170.304,454.154 171.5,454.5C 172.736,453.754 174.07,453.421 175.5,453.5C 175.5,454.833 175.5,456.167 175.5,457.5C 179.155,457.528 181.822,455.861 183.5,452.5C 184.215,454.778 185.382,456.111 187,456.5C 187.333,455.5 187.667,454.5 188,453.5C 189.346,456.249 190.68,456.583 192,454.5C 192.414,454.957 192.914,455.291 193.5,455.5C 195.415,453.528 197.749,452.528 200.5,452.5C 200.5,453.5 200.5,454.5 200.5,455.5C 199.167,457.5 197.5,459.167 195.5,460.5C 195.5,459.5 195.5,458.5 195.5,457.5C 192.838,458.639 190.171,458.806 187.5,458C 188.956,458.423 189.456,459.256 189,460.5C 185.915,459.568 182.748,458.901 179.5,458.5C 179.5,459.5 179.5,460.5 179.5,461.5C 177.167,461.5 174.833,461.5 172.5,461.5C 172.649,460.448 172.483,459.448 172,458.5C 171.333,459.833 170.333,460.833 169,461.5C 166.07,459.152 163.403,457.152 161,455.5C 160.781,456.938 160.281,458.271 159.5,459.5C 157.54,458.277 155.707,456.944 154,455.5C 152.284,455.411 150.451,455.744 148.5,456.5C 147.719,455.271 147.219,453.938 147,452.5C 146.417,454.002 145.584,455.335 144.5,456.5C 143.377,455.456 142.044,454.79 140.5,454.5C 137.822,455.175 135.156,455.842 132.5,456.5C 135.167,453.167 138.167,450.167 141.5,447.5 Z"/></g>
<g><path style="opacity:1" fill="#d2fcfd" d="M 204.5,451.5 C 203.5,453.167 202.167,454.5 200.5,455.5C 200.5,454.5 200.5,453.5 200.5,452.5C 197.749,452.528 195.415,453.528 193.5,455.5C 192.914,455.291 192.414,454.957 192,454.5C 190.68,456.583 189.346,456.249 188,453.5C 187.667,454.5 187.333,455.5 187,456.5C 185.382,456.111 184.215,454.778 183.5,452.5C 181.822,455.861 179.155,457.528 175.5,457.5C 175.5,456.167 175.5,454.833 175.5,453.5C 174.07,453.421 172.736,453.754 171.5,454.5C 170.304,454.154 170.304,453.654 171.5,453C 169.024,452.576 166.691,451.743 164.5,450.5C 161.322,450.578 158.155,450.578 155,450.5C 153.715,450.05 152.548,449.383 151.5,448.5C 150.146,450.184 148.479,450.684 146.5,450C 147.252,449.329 147.586,448.496 147.5,447.5C 149.61,446.547 150.777,444.881 151,442.5C 151.483,443.448 151.649,444.448 151.5,445.5C 153.484,445.383 155.15,446.05 156.5,447.5C 156.669,446.603 157.002,445.603 157.5,444.5C 159.5,445.5 161.5,446.5 163.5,447.5C 165.289,446.123 167.289,445.123 169.5,444.5C 173.201,445.804 176.701,447.471 180,449.5C 181,449.167 182,448.833 183,448.5C 186.95,449.605 190.783,450.938 194.5,452.5C 196.843,450.656 199.01,448.656 201,446.5C 203.172,447.509 204.338,449.176 204.5,451.5 Z"/></g>
<g><path style="opacity:1" fill="#f1fdfe" d="M 195.5,460.5 C 190.167,466.5 184.5,472.167 178.5,477.5C 178.343,476.127 178.51,474.793 179,473.5C 179.667,472.167 180.333,472.167 181,473.5C 181.483,472.552 181.649,471.552 181.5,470.5C 178.869,471.478 176.202,472.478 173.5,473.5C 170.297,472.463 167.463,470.797 165,468.5C 164.439,469.022 163.772,469.355 163,469.5C 158.831,468.724 155.164,467.057 152,464.5C 149.658,465.643 147.158,466.31 144.5,466.5C 139.577,465.726 134.744,464.726 130,463.5C 126.392,464.942 122.892,466.609 119.5,468.5C 123.807,464.528 128.141,460.528 132.5,456.5C 135.156,455.842 137.822,455.175 140.5,454.5C 142.044,454.79 143.377,455.456 144.5,456.5C 145.584,455.335 146.417,454.002 147,452.5C 147.219,453.938 147.719,455.271 148.5,456.5C 150.451,455.744 152.284,455.411 154,455.5C 155.707,456.944 157.54,458.277 159.5,459.5C 160.281,458.271 160.781,456.938 161,455.5C 163.403,457.152 166.07,459.152 169,461.5C 170.333,460.833 171.333,459.833 172,458.5C 172.483,459.448 172.649,460.448 172.5,461.5C 174.833,461.5 177.167,461.5 179.5,461.5C 179.5,460.5 179.5,459.5 179.5,458.5C 182.748,458.901 185.915,459.568 189,460.5C 189.456,459.256 188.956,458.423 187.5,458C 190.171,458.806 192.838,458.639 195.5,457.5C 195.5,458.5 195.5,459.5 195.5,460.5 Z"/></g>
<g><path style="opacity:1" fill="#fcfefe" d="M 178.5,477.5 C 166.395,489.104 154.395,500.937 142.5,513C 126.679,522.662 114.179,519.496 105,503.5C 102.66,495.905 103.327,488.572 107,481.5C 110.67,476.664 114.836,472.331 119.5,468.5C 122.892,466.609 126.392,464.942 130,463.5C 134.744,464.726 139.577,465.726 144.5,466.5C 147.158,466.31 149.658,465.643 152,464.5C 155.164,467.057 158.831,468.724 163,469.5C 163.772,469.355 164.439,469.022 165,468.5C 167.463,470.797 170.297,472.463 173.5,473.5C 176.202,472.478 178.869,471.478 181.5,470.5C 181.649,471.552 181.483,472.552 181,473.5C 180.333,472.167 179.667,472.167 179,473.5C 178.51,474.793 178.343,476.127 178.5,477.5 Z"/></g>
</svg>
